<svg width="48" height="48" viewBox="0 0 48 48" fill="none" xmlns="http://www.w3.org/2000/svg">
<path d="M44 30C44 37.74 37.74 44 30 44L32.1 40.5" stroke="black" stroke-width="2" stroke-linecap="round" stroke-linejoin="round"/>
<path d="M4 18C4 10.26 10.26 4 18 4L15.9 7.5" stroke="black" stroke-width="2" stroke-linecap="round" stroke-linejoin="round"/>
<path d="M27.4 8.90002L35.36 13.5L43.24 8.92004" stroke="black" stroke-width="2" stroke-linecap="round" stroke-linejoin="round"/>
<path d="M35.36 21.64V13.48" stroke="black" stroke-width="2" stroke-linecap="round" stroke-linejoin="round"/>
<path d="M33.48 4.42L28.68 7.07991C27.6 7.67991 26.7 9.1999 26.7 10.4399V15.52C26.7 16.76 27.58 18.28 28.68 18.88L33.48 21.54C34.5 22.12 36.18 22.12 37.22 21.54L42.02 18.88C43.1 18.28 44 16.76 44 15.52V10.4399C44 9.1999 43.12 7.67991 42.02 7.07991L37.22 4.42C36.2 3.86 34.52 3.86 33.48 4.42Z" stroke="black" stroke-width="2" stroke-linecap="round" stroke-linejoin="round"/>
<path d="M4.70001 30.9L12.64 35.5L20.54 30.92" stroke="black" stroke-width="2" stroke-linecap="round" stroke-linejoin="round"/>
<path d="M12.64 43.64V35.48" stroke="black" stroke-width="2" stroke-linecap="round" stroke-linejoin="round"/>
<path d="M10.78 26.42L5.98001 29.0799C4.90001 29.6799 4 31.1999 4 32.4399V37.52C4 38.76 4.88001 40.28 5.98001 40.88L10.78 43.54C11.8 44.12 13.48 44.12 14.52 43.54L19.32 40.88C20.4 40.28 21.3 38.76 21.3 37.52V32.4399C21.3 31.1999 20.42 29.6799 19.32 29.0799L14.52 26.42C13.48 25.86 11.8 25.86 10.78 26.42Z" stroke="black" stroke-width="2" stroke-linecap="round" stroke-linejoin="round"/>
</svg>
