<svg width="48" height="48" viewBox="0 0 48 48" fill="none" xmlns="http://www.w3.org/2000/svg">
<path d="M19.14 24.92L13.04 31.02" stroke="black" stroke-width="2" stroke-miterlimit="10" stroke-linecap="round" stroke-linejoin="round"/>
<path d="M13.1 24.98L19.2 31.08" stroke="black" stroke-width="2" stroke-miterlimit="10" stroke-linecap="round" stroke-linejoin="round"/>
<path d="M27.06 28H27.08" stroke="black" stroke-width="2" stroke-miterlimit="10" stroke-linecap="round" stroke-linejoin="round"/>
<path d="M34.94 28H34.96" stroke="black" stroke-width="2" stroke-miterlimit="10" stroke-linecap="round" stroke-linejoin="round"/>
<path d="M31 31.96V31.92" stroke="black" stroke-width="2" stroke-miterlimit="10" stroke-linecap="round" stroke-linejoin="round"/>
<path d="M31 24.08V24.04" stroke="black" stroke-width="2" stroke-miterlimit="10" stroke-linecap="round" stroke-linejoin="round"/>
<path d="M18 44H30C40 44 44 40 44 30V26C44 16 40 12 30 12H18C8 12 4 16 4 26V30C4 40 8 44 18 44Z" stroke="black" stroke-width="2" stroke-linecap="round" stroke-linejoin="round"/>
<path d="M26.02 4L26 6.02C25.98 7.12 25.1 8 24 8H23.94C22.84 8 21.96 8.9 21.96 10C21.96 11.1 22.86 12 23.96 12H25.96" stroke="black" stroke-width="2" stroke-linecap="round" stroke-linejoin="round"/>
</svg>
