<svg width="48" height="48" viewBox="0 0 48 48" fill="none" xmlns="http://www.w3.org/2000/svg">
<path d="M4 44H44" stroke="white" stroke-width="2" stroke-miterlimit="10" stroke-linecap="round" stroke-linejoin="round"/>
<path d="M5.8999 44L5.9999 19.94C5.9999 18.72 6.5799 17.5601 7.5399 16.8001L21.5399 5.90006C22.9799 4.78006 24.9999 4.78006 26.4599 5.90006L40.4599 16.7801C41.4399 17.5401 41.9999 18.7 41.9999 19.94V44" stroke="white" stroke-width="2" stroke-miterlimit="10" stroke-linejoin="round"/>
<path d="M26 34H22C20.34 34 19 35.34 19 37V44H29V37C29 35.34 27.66 34 26 34Z" stroke="white" stroke-width="2" stroke-miterlimit="10" stroke-linejoin="round"/>
<path d="M19 27.5H15C13.9 27.5 13 26.6 13 25.5V22.5C13 21.4 13.9 20.5 15 20.5H19C20.1 20.5 21 21.4 21 22.5V25.5C21 26.6 20.1 27.5 19 27.5Z" stroke="white" stroke-width="2" stroke-miterlimit="10" stroke-linejoin="round"/>
<path d="M33 27.5H29C27.9 27.5 27 26.6 27 25.5V22.5C27 21.4 27.9 20.5 29 20.5H33C34.1 20.5 35 21.4 35 22.5V25.5C35 26.6 34.1 27.5 33 27.5Z" stroke="white" stroke-width="2" stroke-miterlimit="10" stroke-linejoin="round"/>
<path d="M38.0001 14L37.9401 8H29.1401" stroke="white" stroke-width="2" stroke-miterlimit="10" stroke-linecap="round" stroke-linejoin="round"/>
</svg>
