<svg width="48" height="48" viewBox="0 0 48 48" fill="none" xmlns="http://www.w3.org/2000/svg">
<path d="M9.83997 40.56L13.38 43.3C13.84 43.76 14.86 43.9799 15.56 43.9799H19.9C21.28 43.9799 22.76 42.96 23.1 41.58L25.84 33.2399C26.42 31.6399 25.38 30.26 23.66 30.26H19.08C18.4 30.26 17.82 29.6798 17.94 28.8798L18.52 25.2199C18.74 24.1999 18.06 23.0399 17.04 22.6999C16.12 22.3599 14.98 22.82 14.52 23.5L9.83997 30.4799" stroke="black" stroke-width="2" stroke-miterlimit="10"/>
<path d="M4 40.5601V29.3601C4 27.7601 4.68 27.1799 6.28 27.1799H7.42C9.02 27.1799 9.7 27.7601 9.7 29.3601V40.5601C9.7 42.1601 9.02 42.74 7.42 42.74H6.28C4.68 42.74 4 42.1801 4 40.5601Z" stroke="black" stroke-width="2" stroke-linecap="round" stroke-linejoin="round"/>
<path d="M38.16 7.43994L34.62 4.69995C34.16 4.23995 33.14 4.02002 32.44 4.02002H28.1C26.72 4.02002 25.24 5.03992 24.9 6.41992L22.16 14.76C21.58 16.36 22.62 17.74 24.34 17.74H28.92C29.6 17.74 30.18 18.3201 30.06 19.1201L29.48 22.78C29.26 23.8 29.94 24.96 30.96 25.3C31.88 25.64 33.02 25.18 33.48 24.5L38.16 17.52" stroke="black" stroke-width="2" stroke-miterlimit="10"/>
<path d="M44 7.43994V18.6399C44 20.2399 43.32 20.8201 41.72 20.8201H40.58C38.98 20.8201 38.3 20.2399 38.3 18.6399V7.43994C38.3 5.83994 38.98 5.26001 40.58 5.26001H41.72C43.32 5.26001 44 5.81994 44 7.43994Z" stroke="black" stroke-width="2" stroke-linecap="round" stroke-linejoin="round"/>
</svg>
