<svg width="48" height="48" viewBox="0 0 48 48" fill="none" xmlns="http://www.w3.org/2000/svg">
<path d="M6.34003 14.88L24 25.1L41.54 14.9399" stroke="black" stroke-width="2" stroke-linecap="round" stroke-linejoin="round"/>
<path d="M24 43.22V25.08" stroke="black" stroke-width="2" stroke-linecap="round" stroke-linejoin="round"/>
<path d="M43.22 25.6601V18.34C43.22 15.58 41.24 12.22 38.82 10.88L28.14 4.96C25.86 3.68 22.14 3.68 19.86 4.96L9.17999 10.88C6.75999 12.22 4.78003 15.58 4.78003 18.34V29.6601C4.78003 32.4201 6.75999 35.78 9.17999 37.12L19.86 43.0401C21 43.6801 22.5 44 24 44C25.5 44 27 43.6801 28.14 43.0401" stroke="black" stroke-width="2" stroke-linecap="round" stroke-linejoin="round"/>
<path d="M37.3143 42.6286C41.3539 42.6286 44.6286 39.3539 44.6286 35.3143C44.6286 31.2747 41.3539 28 37.3143 28C33.2747 28 30 31.2747 30 35.3143C30 39.3539 33.2747 42.6286 37.3143 42.6286Z" stroke="black" stroke-width="2" stroke-linecap="round" stroke-linejoin="round"/>
<path d="M46 44L43.7143 41.7143" stroke="black" stroke-width="2" stroke-linecap="round" stroke-linejoin="round"/>
</svg>
