<svg width="48" height="48" viewBox="0 0 48 48" fill="none" xmlns="http://www.w3.org/2000/svg">
<path d="M20.98 4.46L11 8.22C8.70001 9.08 6.82001 11.8 6.82001 14.24V29.1C6.82001 31.46 8.38001 34.56 10.28 35.98L18.88 42.4C21.7 44.52 26.34 44.52 29.16 42.4L37.76 35.98C39.66 34.56 41.22 31.46 41.22 29.1V14.24C41.22 11.78 39.34 9.06 37.04 8.2L27.06 4.46C25.36 3.84 22.64 3.84 20.98 4.46Z" stroke="white" stroke-width="2" stroke-linecap="round" stroke-linejoin="round"/>
<path d="M24 25C26.2091 25 28 23.2091 28 21C28 18.7909 26.2091 17 24 17C21.7909 17 20 18.7909 20 21C20 23.2091 21.7909 25 24 25Z" stroke="white" stroke-width="2" stroke-miterlimit="10" stroke-linecap="round" stroke-linejoin="round"/>
<path d="M24 25V31" stroke="white" stroke-width="2" stroke-miterlimit="10" stroke-linecap="round" stroke-linejoin="round"/>
</svg>
